# xmcd
#
# Track frame offsets:
#	150
#	16673
#	42409
#	57869
#	76214
#	91333
#	109750
#	126032
#	141975
#	156428
#	175481
#	191190
#	206583
#	222780
#	235426
#	250597
#	266201
#
# Disc length: 3781 seconds
#
# Revision: 0
# Processed by: cddbd v1.5.2PL0 Copyright (c) Steve Scherf et al.
# Submitted via: audiograbber 1.83.01
#
DISCID=f40ec311
DTITLE=Various Artist - Pure-Dance Party CD 3 (17 track version)
DYEAR=1900
DGENRE=
TTITLE0=Soul II Soul feat Caron Wheeler - Keep on Moovin'
TTITLE1=Neneh Cherry - Buffalo stance
TTITLE2=Inner City - Big fun
TTITLE3=Jermaine Stewart - We don't have to take our clothes off
TTITLE4=Ashford and Simpson - Solid
TTITLE5=Freddie Jackson - Rock me tonight (for old times sake)
TTITLE6=Loose Ends - Hangin' on a string
TTITLE7=Paul Hardcastle - 19
TTITLE8=The Source, feat Candi Stanton - You got the love
TTITLE9=BBE - Seven days and one week
TTITLE10=Healy, Jeremy and Amos - Stamp!
TTITLE11=Charles and Eddie - Would I lie to you ?
TTITLE12=Fearon, Phil and Galaxy - Dancing tight
TTITLE13=Fun Boy Three and Bananarama - It ain't what you do it's the way that yo
TTITLE13=u do it
TTITLE14=Linx - Intuition
TTITLE15=Dexy's Midnight Runners - Geno
TTITLE16=52nd Street - Tell me (How it feels)
EXTD=This has ALL 17 tracks listed and in correct order
EXTT0=
EXTT1=
EXTT2=
EXTT3=
EXTT4=
EXTT5=
EXTT6=
EXTT7=
EXTT8=
EXTT9=
EXTT10=
EXTT11=
EXTT12=
EXTT13=
EXTT14=
EXTT15=
EXTT16=
PLAYORDER=
